<?xml version="1.0" encoding="utf-8"?>
<!-- Generator: Adobe Illustrator 25.4.1, SVG Export Plug-In . SVG Version: 6.00 Build 0)  -->
<svg version="1.1" id="Livello_1" xmlns="http://www.w3.org/2000/svg" xmlns:xlink="http://www.w3.org/1999/xlink" x="0px" y="0px"
	 viewBox="0 0 2057 974" style="enable-background:new 0 0 2057 974;" xml:space="preserve">
<style type="text/css">
	.st0{fill:#2C2E34;}
	.st1{fill:#FDA703;}
</style>
<path class="st0" d="M0,0v974h2057V0H0z"/>
<g>
	<g>
		<path class="st1" d="M27.7,479.2v-32.6l172.6-67v37.6l-75,26.2l-52.1,18.8v1.6l52.1,18.8l75,26.2v37.6L27.7,479.2z"/>
		<path class="st1" d="M229.3,496.6c0-63.5,43.1-100.1,90.6-100.1s90.6,36.6,90.6,100.1c0,63.2-43.1,99.8-90.6,99.8
			S229.3,559.7,229.3,496.6z M364.7,496.6c0-38.2-16.8-63.6-44.7-63.6c-27.9,0-44.7,25.5-44.7,63.6c0,38.2,16.8,63.3,44.7,63.3
			C347.9,559.9,364.7,534.7,364.7,496.6z"/>
		<path class="st1" d="M454.9,401.1h36.6l3.4,25.8h1.2c17.1-16.6,36.5-30.4,62.5-30.4c40.8,0,58.7,27.6,58.7,75.7v119.5h-44.7V477.9
			c0-31.4-9-43.1-29.6-43.1c-16.8,0-27.8,8.2-43.5,23.7v133.2h-44.7V401.1z"/>
		<path class="st1" d="M672.2,542.7v-225h44.7V545c0,11,5,14.9,9.6,14.9c2,0,3.6,0,7-0.8l5.6,33.4c-5.4,2.2-12.9,3.9-23.6,3.9
			C683.8,596.4,672.2,575.9,672.2,542.7z"/>
		<path class="st1" d="M765.1,666l8.2-34.6c3.6,1.1,9.2,2.6,13.7,2.6c20,0,31.7-13.7,38-32.7l3.6-12l-75-188.3h45.3l32.9,93.4
			c5.7,16.9,11.2,35.7,16.8,53.9h1.6c4.8-17.7,9.6-36.5,14.6-53.9l28.4-93.4h43.1l-68.9,199.3c-15.8,42.9-35.9,69.5-77.4,69.5
			C779.5,669.9,772.1,668.4,765.1,666z"/>
		<path class="st1" d="M951.4,403.1l27.9-2h79.6v35.5H951.4V403.1z M977,381.4c0-39.5,18.2-68.4,63.2-68.4c13.8,0,26.4,3.3,34.9,6.7
			l-8.5,33.4c-6.8-2.9-14.1-4.5-20.6-4.5c-15.8,0-24.2,10-24.2,32.1v211.1H977V381.4z"/>
		<path class="st1" d="M1090.2,520.6V401.1h44.7v113.8c0,31.4,9,43.1,29.6,43.1c16.8,0,27.8-7.8,42.2-26.4V401.1h44.7v190.6h-36.6
			l-3.4-28.1h-1.2c-16.8,19.9-35.2,32.7-61.3,32.7C1108.1,596.4,1090.2,568.7,1090.2,520.6z"/>
		<path class="st1" d="M1308.1,401.1h36.6l3.4,25.8h1.2c17.1-16.6,36.5-30.4,62.5-30.4c40.8,0,58.7,27.6,58.7,75.7v119.5h-44.7
			V477.9c0-31.4-9-43.1-29.6-43.1c-16.8,0-27.8,8.2-43.5,23.7v133.2h-44.7V401.1z"/>
		<path class="st1" d="M1512.8,496.6c0-63.5,44.9-100.1,95.6-100.1c24.2,0,41.9,9.3,55.7,21.4l-21.7,29c-10.1-8.8-19.7-14-31.7-14
			c-30.7,0-52,25.5-52,63.6c0,38.2,21,63.3,50.6,63.3c14.9,0,28.6-7.3,39.4-16.5l18.2,29.5c-17.8,15.8-40.5,23.4-62.2,23.4
			C1552.7,596.4,1512.8,559.7,1512.8,496.6z"/>
		<path class="st1" d="M1685.7,569.8l20.8-28.4c16.9,13.2,33.3,21.3,52.6,21.3c20.8,0,30.6-9.8,30.6-22.8c0-16-20.6-23.1-41-30.9
			c-25-9.4-53.5-23.7-53.5-55.6c0-33.1,26.7-57,69.4-57c26.5,0,47.8,10.8,63.3,22.8l-20.5,27.5c-13.3-9.8-26.8-16.6-41.7-16.6
			c-19.2,0-28.2,9.2-28.2,21.1c0,15.1,19.2,20.8,39.9,28.4c25.8,9.6,54.6,22,54.6,57.6c0,32.7-25.9,59.1-74,59.1
			C1731.8,596.4,1704.3,585.2,1685.7,569.8z"/>
		<path class="st1" d="M1856.7,508.7l75-26.2l52.1-18.8v-1.6l-52.1-18.8l-75-26.2v-37.6l172.6,67v32.6l-172.6,67V508.7z"/>
	</g>
</g>
</svg>
